<?xml version="1.0" encoding="UTF-8" standalone="no"?>
<!-- Created with Inkscape (http://www.inkscape.org/) -->

<svg
   width="77.786659mm"
   height="97.190559mm"
   viewBox="0 0 77.786659 97.190559"
   version="1.1"
   id="svg1"
   xml:space="preserve"
   inkscape:version="1.4.2 (ebf0e940d0, 2025-05-08)"
   sodipodi:docname="icon.svg"
   xmlns:inkscape="http://www.inkscape.org/namespaces/inkscape"
   xmlns:sodipodi="http://sodipodi.sourceforge.net/DTD/sodipodi-0.dtd"
   xmlns="http://www.w3.org/2000/svg"
   xmlns:svg="http://www.w3.org/2000/svg"><sodipodi:namedview
     id="namedview1"
     pagecolor="#ffffff"
     bordercolor="#000000"
     borderopacity="0.25"
     inkscape:showpageshadow="2"
     inkscape:pageopacity="0.0"
     inkscape:pagecheckerboard="0"
     inkscape:deskcolor="#d1d1d1"
     inkscape:document-units="mm"
     inkscape:zoom="0.71535494"
     inkscape:cx="396.30676"
     inkscape:cy="262.10765"
     inkscape:window-width="1854"
     inkscape:window-height="1011"
     inkscape:window-x="0"
     inkscape:window-y="0"
     inkscape:window-maximized="1"
     inkscape:current-layer="layer1"
     inkscape:export-bgcolor="#ffffffff"><inkscape:page
       x="0"
       y="-3.531136e-14"
       width="77.786659"
       height="97.190567"
       id="page2"
       margin="0"
       bleed="0" /></sodipodi:namedview><defs
     id="defs1" /><g
     inkscape:label="Layer 1"
     inkscape:groupmode="layer"
     id="layer1"
     transform="translate(-126.48759,-35.365687)"><path
       style="fill:#000000"
       d="m 129.02847,132.37986 c -0.097,-0.097 -0.17639,-4.32373 -0.17639,-9.39271 v -9.21632 h 1.85209 c 1.83135,0 1.85208,0.008 1.85208,0.70758 v 0.70758 l 0.59531,-0.54222 c 0.98132,-0.89381 1.8187,-1.21155 3.2274,-1.22463 2.15414,-0.02 3.97687,1.26764 4.99228,3.52669 0.67728,1.5068 0.89288,4.74937 0.44103,6.63293 -0.89853,3.74546 -5.58414,5.40555 -8.45024,2.99389 l -0.80578,-0.67802 v 3.33081 3.33081 h -1.6757 c -0.92163,0 -1.75507,-0.0794 -1.85208,-0.17639 z m 8.40916,-8.621 c 2.10743,-2.10788 1.07326,-6.73071 -1.6187,-7.23573 -2.31234,-0.43379 -3.2602,0.75396 -3.26169,4.08718 -9.7e-4,2.16028 0.019,2.22923 0.89859,3.10886 0.73748,0.73747 1.09984,0.89958 2.01083,0.89958 0.90098,0 1.27393,-0.16271 1.97097,-0.85989 z m 10.26771,3.73916 c -1.21674,-0.35139 -2.56805,-1.8081 -2.94495,-3.17465 -0.20985,-0.76085 -0.29338,-2.7532 -0.24277,-5.7902 l 0.0772,-4.6302 1.78594,-0.0782 1.78593,-0.0782 v 4.62199 c 0,4.58644 0.005,4.62826 0.68498,5.43605 0.92801,1.10288 2.60185,1.15923 3.63859,0.1225 0.68704,-0.68705 0.69202,-0.72201 0.76368,-5.35782 l 0.0721,-4.66625 1.79043,-0.0783 1.79043,-0.0783 -0.0706,6.82521 -0.0706,6.82522 h -1.5875 c -1.53513,0 -1.59026,-0.024 -1.67122,-0.72761 -0.046,-0.40018 -0.12921,-0.7276 -0.1848,-0.7276 -0.0556,0 -0.42104,0.29652 -0.8121,0.65894 -1.16436,1.07909 -2.99315,1.42073 -4.80466,0.89757 z m 31.82357,-0.0198 c -1.40464,-0.39265 -3.62329,-2.62659 -4.05298,-4.08091 -0.40908,-1.38454 -0.41461,-4.36054 -0.0106,-5.70895 0.42166,-1.4074 2.08039,-3.22697 3.45483,-3.78984 1.74785,-0.71579 4.58712,-0.64105 6.03338,0.15883 1.35321,0.7484 2.90063,2.65313 2.90063,3.57039 0,0.615 -0.0721,0.64082 -1.78594,0.63922 -1.69145,-0.002 -1.80893,-0.0421 -2.22055,-0.7657 -0.81054,-1.42488 -3.26186,-1.3574 -4.42543,0.12184 -0.47462,0.60338 -0.56391,1.07152 -0.56391,2.95663 0,2.19437 0.0182,2.25795 0.89958,3.13932 0.75717,0.75717 1.08854,0.89958 2.09315,0.89958 1.00798,0 1.30006,-0.12657 1.87854,-0.81405 0.37674,-0.44773 0.68498,-0.92966 0.68498,-1.07096 0,-0.14715 0.70645,-0.22325 1.65364,-0.17814 l 1.65365,0.0788 -0.0296,0.98541 c -0.0392,1.30713 -1.07073,2.62595 -2.62543,3.35674 -1.44765,0.68048 -4.05395,0.91664 -5.53795,0.50181 z m -19.39179,-0.25538 c -0.24435,-0.24436 -0.32879,-2.01702 -0.32879,-6.90255 v -6.57375 l 1.78594,0.0782 c 1.62225,0.0711 1.79368,0.13275 1.87041,0.67303 l 0.0845,0.59479 0.93358,-0.71207 c 1.0838,-0.82665 3.41319,-1.12785 4.90777,-0.63459 1.11881,0.36924 2.41796,1.71025 2.81775,2.90854 0.18013,0.53988 0.30007,2.84013 0.30007,5.75468 v 4.85531 h -1.85208 -1.85209 v -4.65056 -4.65056 l -0.77339,-0.77339 c -0.525,-0.525 -1.0391,-0.7734 -1.60064,-0.7734 -1.0056,0 -2.24288,0.60467 -2.55157,1.24698 -0.12497,0.26005 -0.28823,2.5564 -0.36279,5.10302 l -0.13556,4.63021 -1.45715,0.0774 c -0.90505,0.0481 -1.58173,-0.0471 -1.78594,-0.25135 z m 30.42558,-9.14036 0.0696,-9.20644 1.03311,-0.0846 c 2.25939,-0.18493 2.27418,-0.16355 2.27418,3.28811 v 3.06119 l 0.78703,-0.66224 c 2.24867,-1.89213 5.49777,-1.46421 7.08545,0.93319 l 0.72648,1.09698 v 5.31179 5.31178 h -1.5875 -1.5875 l -0.1323,-4.71998 -0.13229,-4.71997 -0.74236,-0.63784 c -0.79502,-0.68309 -1.88382,-0.81627 -2.89747,-0.35442 -1.24433,0.56696 -1.38287,1.1331 -1.45217,5.9343 l -0.0649,4.49791 -1.72446,0.0783 -1.72446,0.0783 z m -21.08186,-13.36895 c -1.37752,-0.36946 -3.36446,-2.3631 -3.79285,-3.80568 -0.42227,-1.421919 -0.45483,-20.652065 -0.0375,-22.154957 0.37115,-1.336626 2.18264,-3.132511 3.58127,-3.550411 0.80576,-0.240758 4.97195,-0.325394 16.01737,-0.325394 h 14.92834 l 1.16521,0.595312 c 0.64086,0.327422 1.52929,1.052727 1.97429,1.61179 l 0.80909,1.016476 0.0741,11.428418 0.0741,11.428416 -0.62359,1.18115 c -0.34297,0.64963 -1.1306,1.53833 -1.75029,1.97489 l -1.12671,0.79375 -15.12485,0.043 c -9.93189,0.0282 -15.483,-0.053 -16.16797,-0.23676 z m 11.55701,-8.202865 c 1.85359,-1.930291 3.44192,-3.726572 3.52962,-3.991736 0.0877,-0.265164 0.08,-0.798978 -0.0172,-1.186253 -0.2254,-0.898068 -9.45048,-10.042761 -10.36178,-10.271481 -1.49754,-0.375858 -2.73579,1.030029 -2.18444,2.48018 0.15198,0.399733 2.08012,2.544186 4.28477,4.76545 l 4.00844,4.038662 -2.40336,2.444446 c -1.32184,1.344445 -2.47569,2.653839 -2.5641,2.909764 -0.3633,1.051659 0.63272,2.231812 1.94108,2.299926 0.21828,0.01137 1.91344,-1.558667 3.76702,-3.488958 z m 15.22411,2.29621 c 0.65565,-0.459234 0.81514,-1.901018 0.27054,-2.445622 -0.22089,-0.220882 -1.62533,-0.3175 -4.61521,-0.3175 -4.14119,0 -4.31271,0.02142 -4.70958,0.588038 -0.22654,0.323421 -0.41188,0.773179 -0.41188,0.999462 0,0.226283 0.18534,0.676041 0.41188,0.999462 0.39494,0.563866 0.57742,0.588038 4.43904,0.588038 3.21668,0 4.14551,-0.08289 4.61521,-0.411878 z m -41.34842,2.346065 c -1.74861,-0.22733 -6.31543,-1.475331 -8.11653,-2.218045 -10.44149,-4.305722 -18.11034,-13.979479 -19.91787,-25.125075 -0.51653,-3.18504 -0.52293,-8.524853 -0.0137,-11.444863 1.18995,-6.823636 4.2468,-12.742158 9.13015,-17.67731 6.22033,-6.286322 13.4844,-9.297205 22.48985,-9.321815 9.16703,-0.02505 17.16964,3.208965 23.42868,9.468 5.11778,5.117783 8.26195,11.728273 9.11369,19.161201 0.42694,3.725753 0.35237,5.39786 -0.27052,6.066462 -0.75073,0.805804 -1.64183,0.965374 -2.60618,0.466686 -0.95759,-0.495184 -0.98142,-0.583042 -1.33804,-4.932706 -0.58296,-7.110303 -3.21416,-12.991804 -7.9346,-17.736142 -3.30496,-3.321694 -7.66209,-5.887619 -12.2603,-7.220128 -10.29103,-2.982224 -21.32361,0.08284 -28.45748,7.90604 -2.9837,3.272014 -5.37317,7.707061 -6.59215,12.235545 -0.63047,2.342197 -0.69635,3.037463 -0.69635,7.349423 0,4.333928 0.0639,5.000036 0.70972,7.40212 1.38011,5.133016 4.45829,10.290308 8.31126,13.925006 4.63509,4.372512 9.92597,6.722048 16.6225,7.381603 1.73311,0.170697 3.35884,0.421527 3.61271,0.557399 1.14271,0.611558 1.32597,2.317142 0.35347,3.289649 -0.58719,0.58719 -0.84712,0.64563 -2.71198,0.60979 -1.1344,-0.0218 -2.41974,-0.0861 -2.8563,-0.14284 z m 3.37576,-8.227742 c -0.97205,-0.151858 -1.39139,-1.049844 -1.39139,-2.979612 0,-1.484116 0.0922,-1.833684 0.61237,-2.322378 0.74503,-0.699918 1.7724,-0.739214 2.56417,-0.09808 0.88371,0.715586 1.06969,3.602399 0.29529,4.583493 -0.58968,0.74707 -1.14077,0.963373 -2.08044,0.816577 z m -0.9097,-18.407143 c -3.28762,-0.911947 -5.37186,-4.495911 -4.48419,-7.710812 l 0.28989,-1.049869 -5.13582,-5.16358 c -3.09442,-3.111149 -5.20464,-5.441463 -5.30897,-5.862688 -0.39034,-1.575959 1.40896,-3.179872 2.92193,-2.604641 0.35804,0.136125 2.88628,2.528423 5.61831,5.316217 l 4.96733,5.068717 1.32557,-0.284283 c 0.88903,-0.190664 1.70114,-0.199896 2.46604,-0.02804 l 1.14047,0.256248 3.86252,-3.745605 c 2.12439,-2.060082 4.25269,-3.908624 4.72955,-4.107869 3.43117,-1.433636 6.96823,1.50534 5.9404,4.935936 -0.24162,0.806457 -1.3167,1.973778 -5.25609,5.707068 -3.49398,3.311178 -5.04499,4.962731 -5.26695,5.608372 -0.94787,2.757166 -4.71292,4.523913 -7.80999,3.664825 z m -21.02473,-4.415704 c -0.73399,-0.277479 -1.41737,-1.262517 -1.41737,-2.043036 0,-0.338037 0.29224,-0.906857 0.64943,-1.264045 0.53104,-0.531035 0.91298,-0.649432 2.09503,-0.649432 1.83019,0 2.21112,0.152592 2.68928,1.077257 0.52722,1.01953 0.48851,1.427472 -0.20822,2.194138 -0.64779,0.71281 -2.73947,1.089122 -3.80815,0.685118 z m 21.07221,-20.889845 c -0.42732,-0.427317 -0.52917,-0.881945 -0.52917,-2.362047 0,-1.664951 0.0639,-1.883121 0.69714,-2.381249 0.92479,-0.727438 1.82851,-0.692607 2.62218,0.101061 0.55723,0.557229 0.64943,0.895307 0.64943,2.38125 0,2.072861 -0.51014,2.790151 -1.98437,2.790151 -0.57327,0 -1.12763,-0.201587 -1.45521,-0.529166 z"
       id="path1"
       sodipodi:nodetypes="sscsscssssscccsssssssscsccccscsscccccscssccsssssscssssssscccssscsccscsssscccccssssccccccsscsscccccccsssccccssssscsscccssccsscssssscsssccssssssssssscsssssssssssscssssssssssssssscsssscsscsssssssssssssssssssss"
       inkscape:export-filename="icon.svg"
       inkscape:export-xdpi="96"
       inkscape:export-ydpi="96" /></g></svg>
